<svg width="200" height="39" viewBox="0 0 200 39" fill="none" xmlns="http://www.w3.org/2000/svg">
<g id="Frame" clip-path="url(#clip0_9_14416)">
<path id="Content-whale logo" d="M28.4386 21.8032C25.3258 22.5741 24.4258 24.5716 22.9555 27.2157C21.5465 29.7515 19.5371 31.9998 16.8503 33.1532C15.487 33.7379 13.8037 34.1727 12.3213 33.8414C14.9227 31.5273 15.2776 28.2047 15.2776 24.8712C15.2776 20.9348 17.731 19.7777 18.5577 19.5C17.731 19.2211 15.2776 18.0641 15.2776 14.1289C15.2776 10.7954 14.9227 7.47036 12.3213 5.15869C13.8037 4.82741 15.487 5.261 16.8503 5.84684C19.5371 7.00023 21.5429 9.24857 22.9555 11.7831C24.4258 14.4285 25.3258 16.4259 28.4386 17.1969C28.4386 17.1969 32.0038 18.0775 37.239 16.0849C36.3969 11.4198 33.8618 7.24219 30.1317 4.37277C26.4017 1.50335 21.7464 0.149614 17.0805 0.577559C12.4146 1.0055 8.07549 3.18419 4.91571 6.68553C1.75592 10.1869 0.00390625 14.7577 0.00390625 19.5C0.00390625 24.2423 1.75592 28.8132 4.91571 32.3145C8.07549 35.8159 12.4146 37.9946 17.0805 38.4225C21.7464 38.8505 26.4017 37.4967 30.1317 34.6273C33.8618 31.7579 36.3969 27.5802 37.239 22.9152C32.0038 20.9214 28.4398 21.8032 28.4386 21.8032Z" fill="#42175B"/>
<path id="Vector" d="M51.5164 23.4009C51.5933 23.4014 51.6695 23.4159 51.7414 23.4435C51.823 23.4768 51.8967 23.527 51.958 23.5909L53.2154 24.9306C52.6765 25.6516 51.964 26.2207 51.1458 26.5834C50.3164 26.9536 49.3358 27.1388 48.2039 27.1388C47.2466 27.1552 46.2962 26.9728 45.4112 26.6029C44.6176 26.2655 43.9043 25.7605 43.3188 25.1218C42.7327 24.4724 42.2825 23.7097 41.9952 22.8796C41.6819 21.975 41.5264 21.0222 41.5356 20.0637C41.5249 19.0872 41.7053 18.1181 42.0662 17.2125C42.3999 16.3672 42.9039 15.6017 43.5461 14.9646C44.1883 14.3275 44.9547 13.8329 45.7962 13.5123C46.7217 13.1549 47.7056 12.9776 48.696 12.9899C49.1826 12.987 49.6683 13.0331 50.1459 13.1275C50.5808 13.2131 51.0067 13.3403 51.4177 13.5075C51.7997 13.6619 52.1646 13.8562 52.5067 14.0872C52.8269 14.302 53.1227 14.552 53.3886 14.8326L52.319 16.2856C52.2492 16.3767 52.1683 16.4586 52.0783 16.5292C51.9628 16.6088 51.8244 16.6474 51.6849 16.6388C51.5737 16.6393 51.464 16.613 51.3648 16.5621C51.2553 16.5063 51.1489 16.4445 51.0459 16.377L50.6753 16.1395C50.5226 16.0453 50.3615 15.9658 50.1941 15.902C49.9836 15.8224 49.7671 15.7605 49.5467 15.7168C49.2607 15.6632 48.9701 15.6379 48.6792 15.6413C48.1381 15.6342 47.6013 15.739 47.1017 15.9495C46.6344 16.1497 46.2162 16.4516 45.8769 16.8337C45.5213 17.2388 45.2486 17.7111 45.0743 18.2234C44.8769 18.8139 44.7804 19.4342 44.7891 20.0576C44.7788 20.6994 44.8752 21.3384 45.0743 21.9479C45.2428 22.4582 45.5076 22.9306 45.854 23.3388C46.1702 23.7071 46.5625 24.0006 47.0031 24.1986C47.4466 24.3961 47.9263 24.4965 48.4109 24.4934C48.6742 24.4945 48.9373 24.4803 49.199 24.4507C49.4241 24.4252 49.6459 24.3758 49.8608 24.3034C50.0637 24.2341 50.2589 24.1434 50.4431 24.033C50.6411 23.9122 50.828 23.7736 51.0014 23.6189C51.0749 23.557 51.1557 23.5046 51.2421 23.463C51.3278 23.4217 51.4215 23.4005 51.5164 23.4009Z" fill="#42175B"/>
<path id="Vector_2" d="M68.1559 20.0577C68.1639 21.0132 67.9903 21.9614 67.6445 22.8505C67.3181 23.6967 66.8229 24.4658 66.1898 25.1097C65.5568 25.7537 64.7994 26.2587 63.965 26.5932C62.0923 27.3137 60.0236 27.3137 58.151 26.5932C57.3143 26.2601 56.5546 25.7558 55.9194 25.1118C55.2842 24.4677 54.7871 23.6979 54.4595 22.8505C53.7778 21.0525 53.7778 19.0629 54.4595 17.2649C54.7853 16.426 55.2766 15.6631 55.9033 15.0227C56.5453 14.3768 57.3099 13.8693 58.151 13.5307C59.0768 13.1607 60.0651 12.977 61.0604 12.9899C62.0546 12.9765 63.0417 13.1619 63.965 13.5356C64.8031 13.8766 65.5644 14.3858 66.203 15.0324C66.8285 15.6734 67.3196 16.4356 67.6469 17.2735C67.9913 18.1599 68.1641 19.1052 68.1559 20.0577V20.0577ZM64.9071 20.0577C64.9155 19.4317 64.827 18.8083 64.6448 18.2101C64.4894 17.6987 64.2323 17.2249 63.8892 16.818C63.5596 16.4369 63.148 16.1377 62.686 15.9435C62.1704 15.7336 61.6184 15.6305 61.0628 15.6402C60.5025 15.6303 59.9458 15.7334 59.4252 15.9435C58.9605 16.1365 58.5462 16.4358 58.2148 16.818C57.8717 17.2249 57.6145 17.6987 57.4591 18.2101C57.1094 19.4193 57.1094 20.7046 57.4591 21.9139C57.6145 22.4252 57.8717 22.899 58.2148 23.306C58.5455 23.6877 58.9601 23.9856 59.4252 24.1756C59.9465 24.3828 60.5029 24.4842 61.0628 24.474C61.618 24.484 62.1697 24.3826 62.686 24.1756C63.1484 23.9844 63.5604 23.6866 63.8892 23.306C64.2323 22.899 64.4894 22.4252 64.6448 21.9139C64.8277 21.3128 64.9166 20.6865 64.9083 20.0577H64.9071Z" fill="#42175B"/>
<path id="Vector_3" d="M71.6934 13.1607C71.781 13.172 71.8665 13.1962 71.9472 13.2325C72.026 13.2699 72.0986 13.3192 72.1626 13.3787C72.2482 13.4591 72.3285 13.5449 72.4033 13.6357L78.9007 21.9482C78.8754 21.6815 78.8574 21.4245 78.8442 21.1736C78.8309 20.9227 78.8261 20.6864 78.8261 20.4659V13.1412H81.6224V26.9832H79.9704C79.7586 26.9889 79.548 26.9499 79.3519 26.8687C79.1578 26.772 78.9901 26.6285 78.8634 26.4509L72.4165 18.2054C72.4349 18.449 72.4506 18.6849 72.4634 18.9131C72.4763 19.1412 72.4823 19.358 72.4815 19.5634V26.9832H69.6755V13.1412H71.3456C71.4618 13.1403 71.578 13.1468 71.6934 13.1607V13.1607Z" fill="#42175B"/>
<path id="Vector_4" d="M93.7943 13.1411V15.6878H89.9439V26.9831H86.7722V15.6878H82.9219V13.1411H93.7943Z" fill="#42175B"/>
<path id="Vector_5" d="M103.912 13.1411V15.6111H98.3003V18.8411H102.598V21.2161H98.3003V24.5131H103.912V26.9831H95.1094V13.1411H103.912Z" fill="#42175B"/>
<path id="Vector_6" d="M107.73 13.1607C107.818 13.1716 107.903 13.1958 107.984 13.2325C108.063 13.2699 108.135 13.3191 108.199 13.3787C108.283 13.4586 108.362 13.5445 108.434 13.6357L114.931 21.9481C114.906 21.6814 114.887 21.4244 114.875 21.1735C114.863 20.9226 114.856 20.6864 114.856 20.4659V13.1412H117.653V26.9831H116.001C115.789 26.9888 115.578 26.9498 115.381 26.8687C115.19 26.7709 115.025 26.6276 114.9 26.4509L108.452 18.2054C108.471 18.449 108.487 18.6849 108.499 18.913C108.512 19.1444 108.518 19.3612 108.518 19.5634V26.9831H105.717V13.1412H107.387C107.502 13.1405 107.616 13.147 107.73 13.1607Z" fill="#42175B"/>
<path id="Vector_7" d="M129.832 13.1411V15.6878H125.982V26.9831H122.809V15.6878H118.959V13.1411H129.832Z" fill="#42175B"/>
<path id="Vector_8" d="M152.9 13.3408L148.695 26.9818H146.891L143.606 16.8643C143.521 16.6263 143.455 16.382 143.408 16.1336C143.339 16.4259 143.274 16.6695 143.212 16.8643L139.889 26.9831H138.096L133.892 13.342H135.562C135.719 13.3363 135.874 13.3815 136.004 13.4711C136.122 13.5536 136.208 13.6763 136.244 13.817L138.9 22.9517C138.949 23.1283 138.995 23.317 139.036 23.5314C139.077 23.7458 139.119 23.9577 139.156 24.1867C139.201 23.9577 139.245 23.7397 139.292 23.5314C139.336 23.335 139.391 23.1414 139.457 22.9517L142.498 13.817C142.54 13.6828 142.625 13.5662 142.738 13.4845C142.863 13.3884 143.017 13.3381 143.174 13.342H143.747C143.901 13.3358 144.053 13.3826 144.179 13.4748C144.289 13.5634 144.373 13.6822 144.419 13.817L147.45 22.9517C147.573 23.3411 147.674 23.7376 147.751 24.1392C147.826 23.7019 147.907 23.3061 147.992 22.9517L150.658 13.817C150.696 13.6806 150.782 13.5626 150.899 13.4845C151.026 13.3889 151.181 13.3387 151.339 13.342L152.9 13.3408Z" fill="#42175B"/>
<path id="Vector_9" d="M165.85 13.3408V26.9818H163.851V20.8361H156.822V26.9831H154.809V13.342H156.817V19.3648H163.847V13.3408H165.85Z" fill="#42175B"/>
<path id="Vector_10" d="M180.294 26.9828H178.753C178.599 26.9893 178.446 26.942 178.321 26.8488C178.211 26.7609 178.127 26.6425 178.081 26.5078L176.89 23.3412H170.948L169.757 26.5078C169.707 26.6366 169.624 26.7497 169.516 26.8355C169.394 26.9344 169.241 26.9866 169.084 26.9828H167.539L172.907 13.3418H174.925L180.294 26.9828ZM176.347 21.9003L174.348 16.6083C174.177 16.1618 174.033 15.705 173.916 15.2406C173.848 15.5134 173.778 15.7667 173.705 16.0006C173.634 16.2356 173.563 16.4439 173.494 16.6278L171.504 21.9003H176.347Z" fill="#42175B"/>
<path id="Vector_11" d="M189.687 25.2816V26.9867H181.973V13.3457H183.972V25.2816H189.687Z" fill="#42175B"/>
<path id="Vector_12" d="M200.001 25.3386L199.992 26.9828H191.639V13.3418H199.992V14.986H193.647V19.3073H198.752V20.8906H193.647V25.3362L200.001 25.3386Z" fill="#42175B"/>
</g>
<defs>
<clipPath id="clip0_9_14416">
<rect width="200" height="38" fill="white" transform="translate(0 0.5)"/>
</clipPath>
</defs>
</svg>
