<svg width="74" height="25" viewBox="0 0 74 25" fill="none" xmlns="http://www.w3.org/2000/svg">
<g id="XMLID_22_">
<path id="XMLID_24_" d="M24.7453 20.973H28.7808L31.9447 9.22144H27.9092L24.7453 20.973Z" fill="#42175B"/>
<path id="XMLID_28_" d="M45.4397 20.973H49.4753L52.6392 9.22144H48.6036L45.4397 20.973Z" fill="#42175B"/>
<path id="XMLID_29_" d="M66.1343 20.973H70.1698L73.3337 9.22144H69.2982L66.1343 20.973Z" fill="#42175B"/>
<path id="XMLID_30_" d="M41.6932 13.2247H45.7288C46.2776 10.5774 44.5665 9.22144 40.5955 9.22144C36.0111 9.22144 32.9118 11.4491 31.8787 15.3555C30.9425 18.8745 32.815 21.0053 37.1088 21.0053C41.4672 21.0053 44.0177 19.6494 45.1154 16.6146H41.0798C40.531 17.9383 39.4656 18.6485 38.0128 18.6485C36.0757 18.6485 35.3009 17.4217 35.882 15.1618C36.4954 12.8373 37.9805 11.5459 39.9499 11.5459C41.209 11.5782 41.7901 12.127 41.6932 13.2247Z" fill="#42175B"/>
<path id="XMLID_31_" d="M62.3894 13.2247H66.425C66.9738 10.5774 65.2627 9.22144 61.2917 9.22144C56.7073 9.22144 53.608 11.4491 52.5749 15.3555C51.6387 18.8745 53.5112 21.0053 57.805 21.0053C62.1634 21.0053 64.7139 19.6494 65.8116 16.6146H61.776C61.2272 17.9383 60.1618 18.6485 58.709 18.6485C56.7719 18.6485 55.9971 17.4217 56.5782 15.1618C57.1916 12.8373 58.6767 11.5459 60.6461 11.5459C61.9051 11.5782 62.4863 12.127 62.3894 13.2247Z" fill="#42175B"/>
<path id="XMLID_32_" d="M6.6013 5.89597C11.9928 0.56902 18.5143 -0.819217 21.1294 2.82894C23.7444 6.4771 21.4522 13.8057 16.0607 19.1649C10.6692 24.4919 4.14767 25.8801 1.53262 22.232C-1.08243 18.5838 1.17749 11.2552 6.6013 5.89597Z" fill="#42175B"/>
<path id="XMLID_33_" d="M10.152 3.05476C9.57083 3.50675 8.95743 3.99102 8.3763 4.57214C3.63047 9.22112 1.6934 15.6135 4.01789 18.8096C6.40694 22.0058 12.2505 20.8436 17.0609 16.13C19.6436 13.6118 21.387 10.6739 22.1295 7.96202C22.3555 5.96038 22.065 4.18472 21.161 2.82877C19.0302 -0.012272 14.6072 0.213719 10.152 3.05476Z" fill="#42175B"/>
<path id="XMLID_36_" d="M16.6414 2.89327C17.2548 3.50668 16.8997 4.89492 15.802 5.9926C14.7043 7.05799 13.3161 7.4454 12.7027 6.832C12.057 6.21859 12.4444 4.83035 13.5098 3.73268C14.6397 2.60271 16.028 2.27987 16.6414 2.89327ZM12.8318 21.7798C10.3136 23.6845 7.69855 24.6208 5.14807 24.2334C6.21346 24.298 7.08515 23.1034 7.79541 21.5215C8.50567 19.9072 8.95765 18.3899 9.2805 16.9694C9.79705 14.7417 9.82934 13.1275 9.57106 12.7724C9.15136 12.1912 8.15054 12.3527 7.05286 12.9984C6.53631 13.2889 5.82605 13.0952 6.66545 12.0944C7.50485 11.0613 10.8624 8.60764 12.0893 8.22023C13.4129 7.83281 14.9303 8.34937 14.4137 9.80218C14.0263 10.8676 9.37735 23.0711 12.8318 21.7798Z" fill="white"/>
</g>
</svg>
