<svg width="79" height="21" viewBox="0 0 79 21" fill="none" xmlns="http://www.w3.org/2000/svg">
<path d="M38.4522 10.5558L28.8744 0.978027V20.0626L38.4522 10.5558ZM19.3676 10.5558L28.9454 0.978027H9.78982L19.3676 10.5558ZM0.212036 10.5558L9.78982 20.1336V0.978027L0.212036 10.5558ZM19.3676 10.5558L9.78982 20.1336H28.8744L19.3676 10.5558Z" fill="#42175B"/>
<path d="M48.4639 11.2653H44.1361V15.5221H42.0078V5.58955H44.1361V9.70445H48.4639V5.58955H50.5923V15.5221H48.4639V11.2653ZM55.8423 15.7349C53.7139 15.7349 51.9403 14.8835 51.8693 12.4714H53.9977C53.9977 13.5356 54.6362 14.1741 55.8423 14.1741C56.6937 14.1741 57.6869 13.7484 57.6869 12.7551C57.6869 11.9747 57.0484 11.7619 55.9133 11.4072L55.2038 11.1943C53.643 10.7686 52.0822 10.1301 52.0822 8.35646C52.0822 6.15712 54.1396 5.37671 56.0552 5.37671C57.9707 5.37671 59.6734 6.01523 59.6734 8.28552H57.545C57.4741 7.36321 56.9065 6.86659 55.9133 6.86659C55.1329 6.86659 54.3524 7.29227 54.3524 8.21457C54.3524 8.92404 54.991 9.13687 56.4099 9.6335L57.1903 9.84634C58.893 10.4139 59.9572 10.9815 59.9572 12.6133C59.9572 14.8835 57.7579 15.7349 55.8423 15.7349ZM61.1633 5.58955H64.6397C65.2782 5.58955 65.9877 5.58955 66.6262 5.73144C67.8323 6.01523 68.7546 6.79564 68.7546 8.14362C68.7546 9.42066 67.9742 10.0592 66.7681 10.4139C68.1161 10.6977 69.1093 11.3362 69.1093 12.8261C69.1093 15.0964 66.839 15.593 65.1363 15.593H61.2343L61.1633 5.58955ZM64.6397 9.77539C65.562 9.77539 66.5553 9.56255 66.5553 8.42741C66.5553 7.36321 65.6329 7.07943 64.7816 7.07943H63.2917V9.70445L64.6397 9.77539ZM64.8525 14.0322C65.8458 14.0322 66.839 13.8193 66.839 12.6133C66.839 11.4072 65.9877 11.1943 64.9944 11.1943H63.2917V14.1031L64.8525 14.0322ZM74.7141 15.7349C71.5215 15.7349 70.1026 13.6775 70.1026 10.6268C70.1026 7.57605 71.6634 5.37671 74.856 5.37671C76.8425 5.37671 78.7581 6.29901 78.829 8.49836H76.5587C76.4168 7.5051 75.7783 7.00848 74.856 7.00848C72.8695 7.00848 72.3019 9.13687 72.3019 10.6977C72.3019 12.2585 72.8695 14.1031 74.7851 14.1031C75.7783 14.1031 76.4878 13.5356 76.6297 12.5423H78.8999C78.5452 14.8835 76.7716 15.7349 74.7141 15.7349Z" fill="#42175B"/>
</svg>
