<svg width="57" height="23" viewBox="0 0 57 23" fill="none" xmlns="http://www.w3.org/2000/svg">
<g id="Group">
<path id="Vector" d="M56.9147 11.5955C56.9147 11.2674 56.897 10.9394 56.8793 10.6291C56.8615 10.3187 56.8083 9.99069 56.7729 9.68037H52.3398H47.9067L46.559 11.7905L45.2114 13.9007H52.0472C51.6482 15.2838 50.8591 16.4719 49.8041 17.3053C48.749 18.1476 47.4191 18.6529 45.8675 18.6529C43.9347 18.6529 42.2235 17.855 40.9645 16.5605C39.7055 15.2661 38.943 13.5017 38.943 11.5511C38.943 9.63604 39.7055 7.8894 40.9822 6.61267C42.2412 5.33595 43.9879 4.53799 45.9207 4.53799C46.763 4.53799 47.5432 4.66212 48.2702 4.91924C48.9972 5.15862 49.6533 5.52214 50.2385 5.95658L51.4266 4.05922L52.6146 2.16185C51.7014 1.52349 50.6818 1.00925 49.5558 0.681204C48.4475 0.335423 47.224 0.166966 45.9473 0.166966C44.2361 0.166966 42.6845 0.477283 41.3191 1.04472C39.9537 1.61215 38.7302 2.42784 37.7106 3.44745C35.2901 5.86792 34.5897 8.33271 34.1198 10.5759C33.6233 12.8367 33.3573 14.8937 31.6993 16.5339C31.0078 17.2255 30.263 17.7575 29.4207 18.1032C28.5784 18.449 27.6918 18.6352 26.7254 18.6352C24.7394 18.6352 22.9484 17.8106 21.6362 16.5251C20.3418 15.2306 19.5438 13.4662 19.5438 11.5511C19.5438 9.6715 20.3418 7.92487 21.6362 6.63041C22.9307 5.33594 24.7128 4.52026 26.7254 4.49366C27.5677 4.51139 28.3302 4.63552 29.0395 4.85717C29.7488 5.07883 30.4049 5.42461 30.99 5.85905L32.1958 3.96169L33.4016 2.06433C32.4884 1.42596 31.4688 0.938323 30.3605 0.610274C29.2523 0.282226 28.0287 0.11377 26.752 0.11377C24.7837 0.11377 22.9396 0.583677 21.3348 1.42596C19.73 2.26825 18.3646 3.44745 17.3273 4.8749C16.9283 3.61591 16.086 2.5431 14.9423 1.79834C13.7897 1.03585 12.3356 0.592542 10.6954 0.592542H5.55299H0.419479V11.5866V22.5452H11.7238C13.1424 22.5452 14.4192 22.1994 15.4742 21.6142C16.5293 21.0291 17.3716 20.1957 17.9568 19.2115C19.0118 20.3818 20.2886 21.3217 21.7515 21.9778C23.2144 22.6338 24.8281 22.9974 26.5836 22.9974C28.6228 22.9974 30.5024 22.5275 32.1249 21.6674C33.7474 20.8074 35.1128 19.5928 36.1679 18.0766C37.1698 19.575 38.5352 20.7897 40.1754 21.6497C41.7979 22.5097 43.713 22.9974 45.7522 22.9974C48.9086 22.9974 51.6926 21.7206 53.6963 19.6459C55.7001 17.6067 56.9147 14.7518 56.9147 11.5955ZM5.17175 9.50305V4.70645H10.589C11.2805 4.70645 11.8834 4.96357 12.3179 5.38028C12.7523 5.79699 13.0272 6.39989 13.0272 7.09145C13.0272 7.78301 12.7523 8.38591 12.3179 8.80262C11.8834 9.23706 11.2628 9.49418 10.589 9.49418H7.8848H5.17175V9.50305ZM5.17175 18.4845V13.5106H11.6618C12.3888 13.5106 13.0272 13.7854 13.506 14.2198C13.9759 14.6543 14.2684 15.2749 14.2684 15.9842C14.2684 16.6935 13.9759 17.3141 13.506 17.7663C13.036 18.2185 12.3977 18.4933 11.6618 18.4933H8.41677H5.17175V18.4845Z" fill="#42175B"/>
</g>
</svg>
