<svg width="46" height="25" viewBox="0 0 46 25" fill="none" xmlns="http://www.w3.org/2000/svg">
<g id="Group">
<g id="Group_2">
<path id="Vector" d="M43.1684 6.20242C42.5505 5.9875 42.0401 5.79944 42.0401 5.39645C42.0401 4.93973 42.3625 4.7248 43.0341 4.7248C43.5714 4.7248 44.2431 4.91286 44.8073 5.23525H44.8341L45.1565 4.24122C44.5923 3.8651 43.6252 3.59644 42.7117 3.59644C41.1535 3.59644 40.2132 4.32181 40.2132 5.55764C40.2132 6.8472 41.2878 7.22332 42.1744 7.59944C42.8192 7.8681 43.464 8.19049 43.464 8.67408C43.464 9.18453 43.0878 9.37259 42.3625 9.37259C41.7177 9.37259 40.9923 9.15766 40.4281 8.80841H40.4013L40.052 9.82931C40.6162 10.2323 41.664 10.5278 42.5774 10.5278C43.4371 10.5278 44.1087 10.3398 44.5655 9.93677C45.0222 9.56065 45.2371 8.99646 45.2371 8.29795C45.2371 6.98153 44.0819 6.55168 43.1684 6.20242Z" fill="#42175B"/>
<path id="Vector_2" d="M39.1404 8.19051V6.52483C39.1404 5.5308 38.8986 4.80542 38.4151 4.32184C37.8777 3.78452 37.2867 3.54272 36.427 3.54272C35.5404 3.54272 34.4926 3.86511 33.7941 4.3487L34.0897 5.34273H34.1165C34.6807 4.99348 35.3255 4.77855 35.9165 4.77855C36.427 4.77855 36.8568 4.91288 37.0718 5.15467C37.3136 5.42333 37.421 5.66513 37.421 6.33677C37.018 6.14871 36.5076 6.17558 36.024 6.17558C35.9434 6.17558 35.8897 6.17558 35.8091 6.17558C34.2777 6.17558 33.3105 7.00841 33.3105 8.37857C33.3105 9.02335 33.5255 9.56067 33.9285 9.93679C34.3314 10.3129 34.9225 10.5278 35.621 10.5278C36.2389 10.5278 36.9912 10.286 37.5822 9.88306C37.6091 10.0711 37.6628 10.2054 37.7165 10.3666H39.2479V10.3398C39.1673 9.64126 39.1404 9.18455 39.1404 8.19051ZM37.421 7.33081V8.91589C36.9643 9.18455 36.5076 9.4532 36.1852 9.4532C35.5135 9.4532 35.1374 9.07708 35.1374 8.37857C35.1374 7.62633 35.5404 7.19648 36.2658 7.19648C36.3195 7.19648 36.3732 7.19648 36.4001 7.19648C36.4538 7.19648 36.5076 7.19648 36.5882 7.19648C36.8031 7.19648 37.1255 7.19648 37.421 7.33081Z" fill="#42175B"/>
<path id="Vector_3" d="M0.319336 2.25298H2.92532V10.3665H4.88652V2.25298H7.49251V0.855957H0.319336V2.25298Z" fill="#42175B"/>
<path id="Vector_4" d="M10.1253 10.3665V5.28882C10.5015 5.02016 10.985 4.85897 11.388 4.85897C12.1134 4.85897 12.4627 5.34255 12.4627 6.36345V10.3665H14.2895V6.39032C14.2895 5.45001 14.0746 4.7515 13.6179 4.26791C13.188 3.8112 12.7313 3.62314 12.0597 3.62314C11.388 3.62314 10.6895 3.8112 10.1253 4.16045V0.855957H8.29846V10.3396L10.1253 10.3665Z" fill="#42175B"/>
<path id="Vector_5" d="M30.6251 10.3666H32.452V6.39048C32.452 5.36958 32.2639 4.69794 31.8341 4.24122C31.4311 3.81136 30.9475 3.59644 30.3027 3.59644C29.5505 3.59644 28.7445 3.89196 28.046 4.42928C28.0191 4.40241 27.9923 4.34868 27.9654 4.32182C27.9385 4.29495 27.9385 4.29495 27.9117 4.26808C27.5087 3.83823 26.9982 3.6233 26.3803 3.6233C25.6818 3.6233 24.9564 3.8651 24.3385 4.32182C24.2848 4.16062 24.2579 4.08002 24.2311 3.99942C24.2042 3.94569 24.2042 3.86509 24.1773 3.81136H22.6997V10.3398H24.5266V6.73974C24.5266 6.44422 24.5266 6.14869 24.5266 5.88003C24.5266 5.6651 24.5266 5.45018 24.5266 5.26212C24.9833 4.91286 25.44 4.83226 25.7355 4.83226C26.0042 4.83226 26.2191 4.91286 26.3803 5.07406C26.5952 5.34271 26.7027 5.69197 26.7027 6.33675V10.3398H28.5296V6.36362C28.5296 6.14869 28.5296 5.96063 28.5296 5.7457C28.5296 5.55764 28.5296 5.36958 28.5296 5.20838C28.9863 4.85913 29.3893 4.8054 29.6848 4.8054C29.9535 4.8054 30.1684 4.886 30.3296 5.04719C30.5445 5.31585 30.652 5.66511 30.652 6.30988L30.6251 10.3666Z" fill="#42175B"/>
<path id="Vector_6" d="M18.4545 10.5278C19.5023 10.5278 20.362 10.2054 20.9531 9.61438C21.5441 9.02333 21.8396 8.16363 21.8396 7.14273C21.8396 6.09496 21.5441 5.23525 20.9531 4.59047C20.362 3.94569 19.5023 3.59644 18.4545 3.59644C16.3859 3.59644 15.1232 4.886 15.1232 7.06213C15.15 9.21139 16.3859 10.5278 18.4545 10.5278ZM18.4545 4.67107C19.3948 4.67107 19.8784 5.47704 19.8784 7.06213C19.8784 8.64721 19.3948 9.45318 18.4545 9.45318C17.5142 9.45318 17.0306 8.64721 17.0306 7.06213C17.0306 5.47704 17.5142 4.67107 18.4545 4.67107Z" fill="#42175B"/>
</g>
<g id="Group_3">
<path id="Vector_7" d="M14.7223 22.509C13.9969 22.8045 13.0566 22.9389 12.5193 22.9389C11.767 22.9389 11.2297 22.7508 10.8267 22.4015C10.1551 21.7836 9.85954 20.8433 9.85954 19.4463C9.85954 17.7806 10.3431 16.9209 10.773 16.4911C11.1491 16.1149 11.6864 15.9269 12.3581 15.9269C12.976 15.9269 13.9163 16.0881 14.6685 16.4642H14.6954L15.0446 15.3358C14.1849 14.8254 13.0297 14.6373 12.2237 14.6373C10.9342 14.6373 9.91327 15.0135 9.16103 15.7926C8.30133 16.6791 7.8446 17.9418 7.8446 19.4463C7.8446 21.112 8.32819 22.4284 9.24163 23.2344C9.96701 23.906 10.9879 24.2284 12.2506 24.2284C13.0566 24.2284 14.1849 24.0672 15.0446 23.6642L14.7223 22.509Z" fill="#42175B"/>
<path id="Vector_8" d="M18.7506 17.324C16.6819 17.324 15.4193 18.6135 15.4193 20.7897C15.4193 22.9658 16.6551 24.2554 18.7506 24.2554C20.8193 24.2554 22.082 22.9658 22.082 20.7897C22.082 18.6135 20.8461 17.324 18.7506 17.324ZM18.7506 23.1539C17.8103 23.1539 17.3267 22.3479 17.3267 20.7628C17.3267 19.1777 17.8103 18.3717 18.7506 18.3717C19.6909 18.3717 20.1745 19.1777 20.1745 20.7628C20.2014 22.3479 19.7178 23.1539 18.7506 23.1539Z" fill="#42175B"/>
<path id="Vector_9" d="M36.3502 17.4854H34.4427L31.9979 19.9033V14.557H30.171V24.0675H31.9979V21.2197L34.2815 24.0406V24.0675H36.4039L33.3949 20.36L36.3502 17.4854Z" fill="#42175B"/>
<path id="Vector_10" d="M26.0059 17.324C23.9372 17.324 22.6745 18.6135 22.6745 20.7897C22.6745 22.9658 23.9103 24.2554 26.0059 24.2554C28.0745 24.2554 29.3104 22.9658 29.3104 20.7897C29.3104 18.6135 28.0745 17.324 26.0059 17.324ZM26.0059 23.1539C25.0656 23.1539 24.582 22.3479 24.582 20.7628C24.582 19.1777 25.0656 18.3717 26.0059 18.3717C26.9462 18.3717 27.4297 19.1777 27.4297 20.7628C27.4297 22.3479 26.9462 23.1539 26.0059 23.1539Z" fill="#42175B"/>
</g>
</g>
</svg>
