<svg width="76" height="19" viewBox="0 0 76 19" fill="none" xmlns="http://www.w3.org/2000/svg">
<g id="Group">
<path id="Vector" d="M0.101559 5.04849C1.27132 5.04849 2.44107 5.08099 3.6 5.03766C4.06574 5.02683 4.21738 5.20013 4.31486 5.61171C4.8889 8.04871 5.48461 10.4749 6.10199 13.0418C6.19947 12.7711 6.25362 12.6303 6.29695 12.4895C6.91432 10.1824 7.54252 7.87541 8.14907 5.56838C8.25738 5.16763 8.41984 5.016 8.84226 5.03766C9.61127 5.08099 10.3694 5.07015 11.1384 5.03766C11.485 5.02683 11.6258 5.13514 11.7233 5.48173C12.3515 7.86458 13.0014 10.2474 13.6513 12.6194C13.6729 12.6844 13.6946 12.7494 13.7487 12.9119C14.0195 12.3595 14.0845 11.8396 14.2037 11.3414C14.6802 9.41342 15.1568 7.48549 15.6009 5.54672C15.6875 5.17846 15.8067 5.00517 16.2399 5.02683C17.2689 5.07015 18.3086 5.04849 19.3376 5.03766C19.7275 5.02683 19.7817 5.13514 19.6625 5.49257C18.3845 9.55423 17.1172 13.6267 15.8608 17.6992C15.7633 18.0133 15.6225 18.1216 15.3084 18.1108C14.4094 18.0891 13.5105 18.0891 12.6115 18.1108C12.2432 18.1216 12.1241 17.97 12.0374 17.6451C11.3442 15.0239 10.6402 12.4136 9.9362 9.79251C9.73041 9.87916 9.7629 10.0525 9.71957 10.1933C9.09137 12.6303 8.45234 15.0781 7.8458 17.5259C7.73748 17.9483 7.56419 18.0675 7.14177 18.0566C6.29695 18.0242 5.45212 18.0242 4.61813 18.0566C4.17405 18.0783 3.98992 17.9375 3.87078 17.5043C2.70102 13.6051 1.5096 9.71669 0.318181 5.82833C0.264025 5.63337 0.264024 5.41675 0.079895 5.26511L0.101559 5.04849Z" fill="#42175B"/>
<path id="Vector_2" d="M75.921 18.0243C74.4263 18.0352 72.9316 18.0352 71.4478 18.0568C71.1553 18.0568 71.0579 17.8619 70.9387 17.6778L68.6642 14.1685C68.4584 14.1685 68.4259 14.3526 68.3501 14.4609C67.6461 15.5332 66.942 16.6055 66.2597 17.6886C66.0972 17.9377 65.9348 18.0677 65.6207 18.0568C64.3426 18.0352 63.0537 18.0568 61.7756 18.046C61.6348 18.046 61.4507 18.1327 61.364 17.9485C61.2774 17.7644 61.4507 17.6669 61.5265 17.5478C62.967 15.5657 64.3967 13.5836 65.8589 11.6232C66.1622 11.2224 66.1297 10.9733 65.8481 10.5942C64.6134 8.93705 63.4111 7.25823 62.2089 5.57941C62.1005 5.42778 61.9381 5.30863 61.9272 5.02703C63.4003 5.02703 64.8625 5.02703 66.3247 5.02703C66.5955 5.02703 66.6496 5.26531 66.7471 5.43861C67.3536 6.4134 67.9385 7.3882 68.5884 8.43882C69.2166 7.4207 69.8339 6.47839 70.3755 5.50359C70.603 5.10284 70.8521 4.99453 71.2853 5.00536C72.6067 5.02702 73.9281 5.01619 75.2712 5.01619C75.282 5.27614 75.0979 5.40611 74.9787 5.55775C73.7115 7.29072 72.4442 9.01287 71.1662 10.735C71.0145 10.9516 70.8846 11.1141 71.0904 11.3849C72.6609 13.4861 74.2097 15.5873 75.7802 17.6994C75.8127 17.7427 75.8669 17.7536 75.921 17.7861V18.0243Z" fill="#42175B"/>
<path id="Vector_3" d="M30.5024 6.38117C30.5457 5.02728 30.5457 5.02728 31.7371 5.02728C32.4628 5.02728 33.1885 5.03812 33.9142 5.02728C34.2174 5.01645 34.3582 5.07061 34.3582 5.42803C34.3474 9.50053 34.3474 13.573 34.3582 17.6563C34.3582 18.0029 34.2283 18.0679 33.925 18.0679C33.0043 18.0571 32.0837 18.0354 31.1739 18.0788C30.6432 18.1004 30.4374 17.938 30.524 17.4181C30.5349 17.2339 30.5349 17.0498 30.524 16.8657C30.2207 17.1906 30.015 17.4614 29.7658 17.678C28.6286 18.6745 27.253 18.7719 25.8666 18.5662C22.4765 18.0679 20.0937 15.2952 19.9962 11.8184C19.8987 8.3416 22.1191 5.48219 25.4984 4.75651C26.3649 4.56155 27.253 4.55071 28.1195 4.72401C29.0835 4.91897 29.8525 5.43887 30.5024 6.38117ZM27.1772 14.8294C29.0077 14.8403 30.524 13.3456 30.5132 11.5368C30.5024 9.77131 29.0293 8.27661 27.2639 8.26578C25.4551 8.22246 23.9387 9.65216 23.8954 11.461C23.8521 13.2698 25.2818 14.7861 27.0906 14.8294C27.1231 14.8294 27.1447 14.8294 27.1772 14.8294Z" fill="#42175B"/>
<path id="Vector_4" d="M41.7149 7.96224C39.9711 7.96224 38.3464 7.95141 36.7218 7.97307C36.3102 7.97307 36.1369 7.89725 36.1694 7.44234C36.2127 6.77082 36.191 6.09929 36.1694 5.43859C36.1586 5.14615 36.256 5.03784 36.5593 5.03784C39.527 5.04867 42.4947 5.04867 45.4625 5.03784C45.7657 5.03784 45.8632 5.12449 45.8524 5.42776C45.8307 6.22926 45.8307 7.03076 45.8524 7.8431C45.8632 8.1247 45.7224 8.30883 45.5816 8.51462L41.2925 14.4717C41.1625 14.6559 41.0325 14.84 40.9026 15.0241C41.0217 15.2191 41.195 15.1433 41.3358 15.1433C42.7005 15.1541 44.0544 15.1649 45.4083 15.1433C45.7657 15.1433 45.8741 15.2407 45.8632 15.5982C45.8416 16.2697 45.8307 16.9412 45.8632 17.6019C45.8849 18.0027 45.7224 18.0785 45.365 18.0677C42.4514 18.0568 39.5487 18.0568 36.6351 18.0677C36.2994 18.0677 36.1261 17.981 36.1802 17.6236C36.191 17.5803 36.191 17.5478 36.1802 17.5044C35.9636 16.0531 36.4402 14.8833 37.3825 13.746C38.7689 12.0889 39.9928 10.3018 41.2817 8.56878C41.4008 8.39548 41.5308 8.22219 41.7149 7.96224Z" fill="#42175B"/>
<path id="Vector_5" d="M57.9947 6.31645C58.7313 5.30916 59.6194 4.77843 60.735 4.6268C61.1249 4.57264 61.3307 4.60514 61.3091 5.09254C61.2766 6.089 61.2874 7.08546 61.3091 8.07109C61.3091 8.38519 61.2332 8.53682 60.8975 8.51516C60.7458 8.51516 60.5942 8.53683 60.4426 8.58015C58.9262 8.79677 58.2655 9.53329 58.2655 11.0713C58.2547 13.1725 58.2439 15.2738 58.2763 17.3858C58.2872 17.8841 58.1897 18.0899 57.6265 18.0682C56.6733 18.014 55.7094 18.0465 54.7562 18.0574C54.4313 18.0574 54.323 17.9599 54.323 17.6349C54.3338 13.5625 54.3338 9.48996 54.323 5.41747C54.323 5.1142 54.4313 5.02755 54.7238 5.02755C55.6444 5.03838 56.565 5.06004 57.4749 5.01672C57.9298 4.99506 58.0489 5.15752 57.9947 5.56911C57.9839 5.81822 57.9839 6.06734 57.9947 6.31645Z" fill="#42175B"/>
<path id="Vector_6" d="M51.548 11.5912C51.548 13.5624 51.5372 15.5337 51.5588 17.5049C51.5588 17.9165 51.483 18.079 51.0281 18.0682C50.0317 18.0357 49.0352 18.0465 48.0387 18.0682C47.7138 18.0682 47.6163 17.9599 47.6163 17.6349C47.6272 13.5733 47.6272 9.52243 47.6163 5.46077C47.6163 5.08168 47.7571 5.02752 48.0929 5.02752C49.0894 5.04919 50.0858 5.04919 51.0823 5.02752C51.4614 5.01669 51.5697 5.13583 51.5697 5.51492C51.548 7.54034 51.548 9.56575 51.548 11.5912Z" fill="#42175B"/>
<path id="Vector_7" d="M51.2444 2.16761C51.2552 3.0666 50.5404 3.80311 49.6522 3.81394C49.6197 3.81394 49.5981 3.81394 49.5656 3.81394C48.6449 3.81394 47.8976 3.06659 47.8976 2.13512C47.8976 2.13512 47.8976 2.13512 47.8976 2.12429C47.9192 1.20364 48.6666 0.46713 49.5981 0.456299C50.5187 0.477961 51.2552 1.23614 51.2444 2.16761C51.2444 2.15678 51.2444 2.15678 51.2444 2.16761Z" fill="#42175B"/>
</g>
</svg>
