<svg width="82" height="21" viewBox="0 0 82 21" fill="none" xmlns="http://www.w3.org/2000/svg">
<path fill-rule="evenodd" clip-rule="evenodd" d="M30.6064 7.12655C30.2263 6.39797 29.7353 5.68523 29.1334 5.02001C27.7555 3.53117 25.8073 2.29575 23.5107 1.44046C21.1983 0.585176 18.5374 0.125854 15.8606 0.125854C13.168 0.125854 10.523 0.585176 8.21054 1.44046C5.89809 2.29575 3.94993 3.53117 2.57197 5.02001C1.95426 5.68523 1.46326 6.38213 1.08313 7.12655C4.07664 6.41381 9.20837 5.44765 13.96 5.35262C14.4193 5.33678 14.7361 5.49517 14.942 5.74859C15.1954 6.06536 15.1796 7.22158 15.1637 7.72842L15.0212 20.9696C15.2904 20.9854 15.5597 20.9854 15.8289 20.9854C16.0982 20.9854 16.3675 20.9854 16.6367 20.9696L16.4942 7.72842C16.4942 7.22158 16.4625 6.06536 16.7159 5.74859C16.9218 5.47933 17.2386 5.33678 17.6979 5.35262C22.497 5.44765 27.6129 6.39797 30.6064 7.12655Z" fill="#42175B"/>
<path fill-rule="evenodd" clip-rule="evenodd" d="M31.2418 8.85304C26.8703 7.8552 23.9401 7.68098 21.0416 7.52259C18.5233 7.38004 18.4916 8.28285 18.745 9.99342C18.7609 10.1043 18.7767 10.231 18.8084 10.3736C19.6478 15.3786 20.709 19.6867 20.8833 20.4153C27.0287 19.0056 31.4477 15.1252 31.4477 10.5478C31.4477 9.97759 31.3843 9.40739 31.2418 8.85304Z" fill="#42175B"/>
<path fill-rule="evenodd" clip-rule="evenodd" d="M12.949 9.99342C13.2024 8.28285 13.1707 7.38004 10.6524 7.52259C7.75387 7.68098 4.83956 7.87104 0.452241 8.85304C0.325531 9.40739 0.246338 9.97758 0.246338 10.5636C0.246338 12.5435 1.05411 14.4441 2.57462 16.0913C3.95259 17.5802 5.90075 18.8156 8.19736 19.6709C9.03681 19.9876 9.90793 20.2252 10.8107 20.4311C10.985 19.7501 12.062 15.3469 12.9173 10.2627C12.9331 10.1518 12.949 10.0726 12.949 9.99342Z" fill="#42175B"/>
<path fill-rule="evenodd" clip-rule="evenodd" d="M40.3365 5.36841H50.3624V8.40944H47.4798V15.7427H43.2984V8.40944H40.3365V5.36841Z" fill="#42175B"/>
<path fill-rule="evenodd" clip-rule="evenodd" d="M55.4311 9.56566L53.3246 15.7427H49.3174L53.2454 5.36841H57.601L61.6399 15.7427H57.5694L55.4311 9.56566Z" fill="#42175B"/>
<path fill-rule="evenodd" clip-rule="evenodd" d="M60.6733 5.36841H70.6992V8.40944H67.8324V15.7427H63.651V8.40944H60.6733V5.36841Z" fill="#42175B"/>
<path fill-rule="evenodd" clip-rule="evenodd" d="M75.7838 9.56566L73.6614 15.7427H69.6542L73.5981 5.36841H77.9537L81.9767 15.7427H77.922L75.7838 9.56566Z" fill="#42175B"/>
</svg>
