<svg width="57" height="15" viewBox="0 0 57 15" fill="none" xmlns="http://www.w3.org/2000/svg">
<g id="Group">
<path id="Vector" d="M28.1418 1.06332C30.3267 1.06332 32.4608 0.86007 34.5949 1.13953C37.1355 1.49521 37.4149 4.28984 36.5765 5.81418C36.2209 6.3731 35.5349 6.70338 35.1284 7.10987C35.4079 7.2369 35.7381 7.38933 36.0938 7.59258C37.2625 8.35475 37.8214 9.4472 37.4657 11.0223C37.1863 12.4705 36.2971 13.5629 34.8489 13.7662C32.6387 14.0456 30.3775 13.9694 28.1927 14.0456C28.1418 9.52341 28.1418 5.25526 28.1418 1.06332ZM30.9111 11.7845C31.6732 11.7845 32.41 11.8607 33.1722 11.7845C34.2138 11.6575 34.6711 11.0223 34.6711 9.9299C34.6711 8.83746 34.1884 7.99907 33.223 7.87204C32.4608 7.79582 31.6478 7.87204 30.8857 7.87204C30.9111 9.16773 30.9111 10.4126 30.9111 11.7845ZM30.9111 3.04496C30.9111 4.28984 30.9111 5.38228 30.9111 6.62716C31.5208 6.62716 32.0797 6.62716 32.6895 6.62716C33.6549 6.62716 34.1376 6.01743 34.1884 5.12823C34.2646 3.95957 33.7057 3.19739 32.8165 3.14658C32.1305 2.99415 31.597 3.04496 30.9111 3.04496Z" fill="#42175B"/>
<path id="Vector_2" d="M25.8809 13.8423C24.9917 13.7661 23.9501 14.325 23.4674 13.0294C23.1117 13.1564 22.9084 13.3088 22.6544 13.4358C20.5965 14.5283 18.3862 13.8423 17.497 11.7083C16.7349 9.98067 16.7349 8.27849 17.6241 6.62712C18.7165 4.69629 20.7236 4.2898 22.7814 4.69629C22.9847 4.77251 23.1371 4.82332 23.4674 4.89954C23.4674 4.13737 23.4674 3.52763 23.4674 2.91789C23.4674 2.30816 23.4674 1.67301 23.4674 0.987061C24.2804 0.987061 25.1187 0.987061 25.8809 0.987061C25.8809 5.25522 25.8809 9.52337 25.8809 13.8423ZM23.4166 9.09148C23.4166 8.53255 23.4166 7.99903 23.4166 7.51632C23.4166 7.31308 23.3403 7.10983 23.2895 6.9574C22.3241 6.14441 20.1392 6.14442 19.7835 7.77038C19.6565 8.38012 19.5803 9.06607 19.6565 9.75202C19.7835 11.5304 21.3079 12.3688 22.883 11.5304C23.2895 11.3272 23.569 11.0477 23.4928 10.565C23.3403 10.0569 23.4166 9.57418 23.4166 9.09148Z" fill="#42175B"/>
<path id="Vector_3" d="M16.0743 9.77701C13.7369 9.77701 11.552 9.77701 9.41797 9.77701C9.49419 10.9457 10.3072 11.9111 11.552 11.8349C12.6445 11.7587 13.7623 11.5554 14.9056 11.3522C14.9056 11.8349 14.9056 12.3938 14.9056 13.0035C14.9056 13.1306 14.7786 13.3592 14.7024 13.41C12.7207 14.3754 9.01148 14.5025 7.41092 11.8349C6.4455 10.1073 6.59794 7.56672 7.7666 6.06778C9.01148 4.49263 11.0693 3.85749 13.051 4.49263C14.5499 4.97534 15.3883 6.144 15.7948 7.64294C15.9218 8.3543 15.9218 8.96403 16.0743 9.77701ZM13.5337 8.55754C13.6607 7.51591 12.6445 6.42346 11.552 6.42346C10.2564 6.34725 9.34175 7.18563 9.34175 8.55754C10.7137 8.55754 12.1618 8.55754 13.5337 8.55754Z" fill="#42175B"/>
<path id="Vector_4" d="M45.1878 13.9182C45.1115 13.5625 45.1115 13.3084 45.1115 12.9528C44.7559 13.156 44.4256 13.3084 44.1461 13.4355C43.3331 13.842 42.4185 14.1976 41.4785 13.9944C40.1828 13.7149 39.3445 12.9528 39.2936 11.5809C39.2174 9.37056 39.2936 7.18567 39.2936 4.92456C40.0558 4.92456 40.7926 4.92456 41.7072 4.92456C41.7072 5.12781 41.7072 5.33105 41.7072 5.61052C41.7072 7.10945 41.7072 8.55757 41.7072 10.0819C41.7072 11.3776 42.4694 12.0127 43.765 11.7333C44.8575 11.53 45.2132 11.0473 45.2132 9.87867C45.2132 8.2273 45.2132 6.65215 45.2132 4.92456C46.0261 4.92456 46.7883 4.92456 47.6267 4.92456C47.6267 5.12781 47.7029 5.40727 47.7029 5.61052C47.7029 8.15108 47.7029 10.6917 47.7029 13.156C47.7029 13.7149 47.5759 13.9182 46.9408 13.9182C46.2802 13.842 45.7213 13.9182 45.1878 13.9182Z" fill="#42175B"/>
<path id="Vector_5" d="M49.3796 13.4862C49.3796 12.597 49.3796 11.911 49.3796 11.3521C50.472 11.5553 51.5899 11.7586 52.6823 11.911C52.9618 11.9872 53.2921 11.911 53.4953 11.784C53.7748 11.5807 54.1813 11.225 54.2575 10.971C54.2575 10.6915 53.9018 10.2088 53.5715 10.158C52.8856 9.95476 52.1234 9.87855 51.4374 9.75152C49.5066 9.34503 48.8207 7.0077 50.1417 5.55958C50.9039 4.67038 51.8693 4.3147 53.038 4.3147C53.851 4.3147 54.6894 4.44173 55.5023 4.59416C55.6294 4.59416 55.8326 4.87362 55.8326 5.00065C55.9088 5.61039 55.8326 6.16931 55.8326 6.77905C54.9434 6.65202 54.0542 6.49959 53.165 6.37256C52.8856 6.37256 52.6061 6.37256 52.4029 6.49959C52.1234 6.62662 51.7931 6.9823 51.8439 7.18554C51.8439 7.38879 52.1996 7.79528 52.4537 7.87149C53.0126 8.07474 53.6223 8.07474 54.2321 8.22717C55.4007 8.43042 56.2137 8.98934 56.5694 10.158C56.9251 11.3267 56.3661 12.6224 55.4007 13.3845C54.4353 14.1467 53.2667 14.1975 52.098 14.0705C51.158 13.918 50.2688 13.6386 49.3796 13.4862Z" fill="#42175B"/>
<path id="Vector_6" d="M0.0668785 4.84837C0.87986 4.77215 1.71825 4.72134 2.53123 4.64512C2.53123 4.92459 2.60745 5.12783 2.60745 5.4581C2.96313 5.25486 3.21718 5.17864 3.42043 4.9754C4.1826 4.49269 4.91936 4.36566 5.83397 4.49269C6.03721 4.49269 6.24046 4.77215 6.24046 4.9754C6.31668 5.73757 6.24046 6.47433 6.24046 7.10947C5.42748 7.03326 4.58909 6.90623 3.77611 7.03326C2.73448 7.16029 2.48042 7.59218 2.48042 8.60841C2.48042 10.336 2.48042 11.962 2.48042 13.8166C1.71825 13.8166 1.03229 13.8166 0.346341 13.8166C0.219313 13.8166 -0.00933838 13.4101 -0.00933838 13.2577C-0.00933838 10.8441 -0.00933838 8.50679 -0.00933838 6.11865C0.0668787 5.73757 0.0668785 5.33108 0.0668785 4.84837Z" fill="#42175B"/>
</g>
</svg>
